<?xml version="1.0" encoding="UTF-8" standalone="no"?>
<!DOCTYPE svg PUBLIC "-//W3C//DTD SVG 1.1//EN" "http://www.w3.org/Graphics/SVG/1.1/DTD/svg11.dtd">
<svg width="100%" height="100%" viewBox="0 0 487 295" version="1.1" xmlns="http://www.w3.org/2000/svg" xmlns:xlink="http://www.w3.org/1999/xlink" xml:space="preserve" xmlns:serif="http://www.serif.com/" style="fill-rule:evenodd;clip-rule:evenodd;stroke-linejoin:round;stroke-miterlimit:2;">
    <g transform="matrix(1,0,0,1,-1249,-17535)">
        <g id="Footer-illustration" serif:id="Footer illustration" transform="matrix(0.407182,0,0,0.407182,1303.662247,17505.358788)">
            <g transform="matrix(1.15625,0,0,1.15625,0,0)">
                <path d="M379.647,493.48C379.515,493.318 380.136,493.13 380.004,492.969C379.999,492.962 377.915,492.543 376.935,489.355C376.157,486.823 379.356,484.513 378.774,477.469C378.484,473.952 381.775,472.132 379.649,468.399C376.531,462.924 383.493,463.718 382.898,458.459C382.688,456.601 380.37,454.225 382.732,451.739C386.698,447.564 386.33,446.935 384.42,441.531C383.229,438.163 388.124,436.866 385.191,433.833C382.636,431.191 385.066,430.059 383.448,428.563C381.82,427.056 371.449,426.705 366.407,414.536C364.981,411.095 367.092,410.981 370.669,412.023C383.041,415.627 386.854,415.906 387.308,414.423C389.046,408.73 391.038,408.273 387.512,403.491C383.773,398.421 392.768,397.234 388.72,392.307C386.769,389.931 390.972,388.063 388.706,384.375C386.295,380.451 384.985,379.36 387.323,376.337C391.579,370.833 385.399,366.48 388.515,362.512C391.332,358.924 392.121,358.785 390.687,354.433C389.35,350.372 393.386,349.778 390.649,346.37C388.201,343.322 390.511,342.085 387.634,339.364C383.464,335.42 393.855,330.017 391.03,325.772C387.212,320.035 390.118,319.249 388.366,312.531C386.863,306.771 395.327,303.465 392.126,299.819C389.445,296.765 389.428,296.434 390.792,292.608C391.563,290.447 388.15,289.136 389.646,286.587C390.744,284.716 390.59,284.673 390.272,282.546C389.998,280.708 392.372,279.961 391.879,277.393C390.874,272.166 393.254,272.805 398.491,272.385C403.521,271.982 459.602,267.486 461.16,265.223C468.299,254.854 469.247,254.495 483.478,254.152C486.338,254.083 496.649,244.434 500.149,235.369C504.305,224.606 512.225,198.709 510.479,197.529C509.679,196.989 479.516,205.029 452.726,180.261C413.726,144.203 432.941,70.112 493.541,64.99C541.557,60.932 580.805,111.756 557.202,162.374C553.734,169.811 548.724,170.231 553.279,175.678C579.553,207.099 578.977,250.651 578.886,257.51C578.808,263.373 581.647,261.325 587.46,261.881C631.173,266.067 651.308,264.772 652.157,267.619C653.947,273.619 649.889,274.531 651.955,278.199C654.01,281.847 652.794,282.022 650.958,284.763C649.966,286.244 653.094,288.35 650.966,290.868C648.457,293.836 652.794,299.182 651.776,301.608C650.999,303.457 650.449,304.099 652.734,305.02C654.285,305.645 662.507,334.103 694.448,340.785C695.072,340.915 707.264,341.104 698.408,345.32C680.088,354.043 657.197,359.649 653.513,360.551C647.256,362.084 653.639,368.265 651.199,371.283C649.098,373.883 649.686,374.103 649.946,377.486C650.071,379.11 647.936,379.768 649.306,382.614C651.68,387.547 647.624,391.758 649.948,396.292C651.254,398.841 650.896,398.943 649.807,401.631C649.48,402.438 650.489,402.436 650.643,412.482C650.717,417.257 668.415,429.418 682.509,427.968C684.967,427.715 685.343,430.178 682.373,431.201C676.762,433.136 656.867,439.15 654.643,439.822C654.243,439.943 653.383,440.203 652.055,444.362C651.193,447.061 656.348,448.534 653.292,452.332C652.93,452.782 652.887,452.836 652.346,459.495C652.145,461.964 657.768,464.349 651.669,467.83C649.174,469.254 652.91,471.062 652.111,473.308C647.276,486.886 651.792,487.003 651.854,490.483C651.909,493.505 650.678,493.511 651.797,496.368C653.022,499.494 651.19,500.107 653.353,502.647C656.49,506.332 652.59,507.085 653.944,515.412C654.407,518.26 651.859,517.669 652.139,520.545C652.99,529.292 653.276,529.65 653.768,530.266C659.275,537.161 652.613,542.427 653.177,545.538C653.631,548.044 653.625,548.005 653.315,550.497C653.254,550.982 653.738,550.915 654.316,556.53C654.491,558.232 657.907,560.814 656.862,563.627C655.954,566.068 655.945,566.02 656.199,568.515C656.413,570.615 653.491,572.824 655.605,578.45C656.714,581.401 654.543,581.469 655.349,584.543C656.035,587.162 653.848,587.306 655.161,589.689C656.815,592.69 654.689,593.097 655.979,596.307C656.546,597.718 655.851,599.812 658.5,599.483C661.404,599.122 666.248,596.889 667.488,599.507C668.443,601.522 675.558,616.542 684.398,621.674C690.633,625.293 691.326,620.984 774.495,623.682C833.079,625.582 833.06,622.665 875.501,624.483C892.685,625.219 917.727,622.909 917.708,626.499C917.696,628.703 908.543,628.249 878.504,627.959C863.228,627.811 863.261,626.917 818.499,627.866C782.73,628.625 782.844,625.78 710.502,626.181C696.393,626.26 686.722,624.937 694.21,628.942C703.857,634.103 706.521,636.185 716.501,637.496C724.679,638.57 698.859,649.955 684.524,653.589C661.34,659.467 650.529,657.241 647.423,658.226C620.657,666.717 522.406,689.586 520.506,689.428C519.441,689.339 351.716,657.517 351.551,657.413C349.118,655.88 352.168,655.064 351.631,650.479C351.231,647.06 357.12,642.383 351.569,641.232C313.829,633.41 310.145,632.951 306.501,632.495C297.142,631.327 307.116,629.103 307.395,629.041C308.283,628.843 321.939,625.799 317.73,624.279C316.279,623.754 308.728,625.119 263.502,624.414C216.997,623.688 217.044,624.96 170.496,623.7C100.201,621.796 -119.692,625.696 -115.142,620.621C-112.5,617.674 201.766,622.016 232.496,621.011C244.538,620.617 323.22,622.361 326.401,620.325C326.401,620.325 331.449,616.29 331.888,615.939C336.84,611.225 336.407,610.944 340.762,605.698C343.924,601.888 350.658,606.062 352.146,604.163C354.726,600.867 354.662,600.514 353.027,596.712C352.107,594.572 353.706,592.264 352.373,591.723C349.15,590.416 323.773,584.469 330.557,581.604C334.581,579.905 338.222,581.723 353.787,570.902C371.817,558.369 377.451,544.941 377.084,543.643C375.844,539.267 374.222,538.756 377.361,535.355C379.201,533.362 377.585,531.947 378.396,530.435C381.001,525.576 376.664,525.403 377.656,520.537C378.954,514.174 373.589,513.783 376.594,509.567C382.532,501.237 374.478,502.519 368.462,500.599C361.716,498.445 371.164,496.856 371.551,496.791C372.204,496.681 372.141,496.623 379.521,494.527C379.563,494.178 379.605,493.829 379.647,493.48Z"/>
            </g>
            <g transform="matrix(1.15625,0,0,1.15625,0,0)">
                <path d="M525.138,513.271C533.807,513.797 533.449,511.256 631.586,491.954C634.583,491.364 653.008,486.746 648.424,491.416C646.921,492.947 532.693,514.569 526.814,519.789C522.862,523.298 532.75,519.356 550.538,515.725C557.917,514.219 557.662,513.497 642.558,495.85C651.786,493.931 648.062,499.432 647.603,499.642C643.829,501.373 527.555,523.612 525.707,526.585C523.107,530.768 528.508,526.639 611.582,509.93C613.66,509.512 613.627,509.501 637.531,504.618C640.808,503.948 651.06,501.004 650.732,504.551C650.59,506.09 649.32,504.139 612.431,512.225C527.336,530.878 527.163,530.548 525.632,531.689C519.394,536.334 532.896,532.363 562.544,525.681C569.538,524.105 649.715,506.036 650.495,508.502C651.438,511.483 648.78,510.135 593.538,522.665C527.09,537.738 522.193,536.958 525.25,539.726C527.503,541.766 647.16,511.456 649.913,514.219C653.035,517.354 648.031,516.375 589.582,529.88C565.145,535.526 565.198,535.434 555.563,537.77C526.193,544.889 523.943,545.54 525.753,547.268C526.673,548.145 647.979,517.299 648.627,520.465C648.872,521.661 648.015,521.488 603.408,532.074C597.184,533.552 525.927,550.462 525.635,550.679C517.647,556.608 542.229,548.997 629.476,528.385C640.645,525.747 651.935,522.633 649.02,526.193C648.138,527.271 526.409,555.342 524.841,556.867C521.445,560.172 531.851,557.456 532.441,557.302C591.924,541.774 605.038,540.862 611.489,540.413C649.394,537.778 654.185,530.877 652.734,536.575C652.201,538.666 638.702,538.84 592.439,548.17C577.719,551.139 524.977,562.731 523.916,563.922C521.433,566.71 529.134,564.975 529.582,564.874C539.198,562.707 646.435,538.537 650.395,540.634C656.628,543.935 647.28,542.765 564.549,560.7C561.366,561.39 525.572,569.15 524.893,569.948C520.682,574.895 528.398,570.065 626.556,550.739C643.549,547.393 651.698,544.631 650.207,548.354C649.668,549.699 524.923,572.866 524.363,575.459C523.934,577.45 525.646,577.425 549.534,571.649C552.007,571.051 636.906,554.053 644.505,552.531C653.774,550.676 650.727,555.927 650.234,556.15C646.57,557.808 609.439,563.449 544.533,576.648C536.41,578.3 522.746,579.82 526.64,582.25C528.052,583.13 576.258,572.488 618.459,565.25C641.926,561.225 652.194,556.63 653.606,561.46C654.718,565.265 651.614,563.925 605.448,573.164C551.992,583.862 517.936,585.491 526.421,588.613C530.832,590.236 628.638,571.155 637.488,569.428C644.839,567.994 654.242,565.226 652.49,569.493C651.456,572.01 526.881,590.602 526.448,593.483C525.976,596.617 531.897,593.596 581.474,585.352C608.625,580.837 633.019,576.294 637.493,575.461C639.167,575.149 655.043,571.428 651.442,575.444C650.653,576.323 527.539,597.92 525.891,599.886C521.937,604.602 533.888,599.486 636.426,581.047C643.358,579.8 653.873,576.959 652.355,580.427C651.018,583.479 649.079,579.225 611.502,588.509C592.163,593.287 525.87,605.594 524.865,607.652C523.444,610.562 526.752,608.602 574.424,599.029C608.984,592.089 659.481,578.902 650.549,586.541C649.844,587.144 526.411,609.541 524.85,612.53C522.898,616.268 527.303,612.487 601.52,598.604C625.678,594.085 638.794,590.372 650.607,589.445C650.333,589.674 650.912,590.287 650.638,590.516C649.655,591.34 525.928,617.138 525.259,618.355C523.333,621.861 527.43,619.695 574.554,609.97C598.767,604.974 651.657,591.495 652.111,592.856C653.334,596.521 649.733,593.969 605.476,605.41C526.186,625.906 516.6,623.012 522.603,626.284C526.399,628.353 649.311,596.035 652.632,597.307C653.03,597.459 654.897,600.243 651.368,601.009C648.291,601.676 611.962,609.025 608.535,609.718C598.316,611.785 598.669,612.956 588.407,615.114C583.146,616.221 523.452,628.778 522.82,629.734C520.573,633.14 525.259,631.138 596.562,615.875C600.633,615.004 600.301,618.118 598.554,618.606C586.515,621.968 524.212,634.711 523.647,635.579C522.049,638.03 528.149,636.769 528.542,636.688C600.447,621.83 602.692,619.1 602.846,622.437C602.939,624.432 585.664,627.396 547.463,635.3C541.457,636.542 515.583,641.142 524.47,642.59C525.678,642.787 584.272,630.44 589.465,629.346C603.086,626.475 604,624.869 607.145,628.738C608.339,630.207 608.313,630.876 606.43,631.334C553.483,644.23 514.282,647.259 524.644,650.163C525.427,650.383 570.251,642.055 582.468,639.346C604.301,634.507 614.783,631.509 611.179,635.274C609.627,636.895 524.557,653.033 523.727,654.696C521.667,658.826 526.244,655.365 580.56,644.834C597.516,641.546 618.654,635.103 615.635,639.545C614.872,640.667 526.497,659.234 524.53,661.524C521.144,665.467 531.424,661.769 556.591,656C584.568,649.586 584.453,649.388 612.458,643.298C616.606,642.396 618.404,640.956 621.217,643.746C623.443,645.953 620.393,646.316 583.403,654.013C525.892,665.981 524.797,666.529 524.745,669.227C523.343,669.672 523.486,669.981 522.026,670.092C521.61,670.123 521.732,670.351 521.349,670.38C520.117,668.311 519.731,668.359 485.564,661.175C478.301,659.649 412.931,645.906 394.514,643.428C394.252,643.392 389.191,642.711 392.118,641.14C397.407,638.299 397.744,639.705 409.412,641.967C517.151,662.861 527.242,669.54 521.271,663.819C518.706,661.362 425.926,642.687 417.601,641.011C406.865,638.85 394.404,636.701 401.561,634.802C401.806,634.737 466.835,647.528 481.547,650.276C503.56,654.386 529.613,661.448 520.628,656.375C515.825,653.663 405.705,633.645 404.687,632.369C401.465,628.329 407.469,630.292 468.435,642.785C517.163,652.769 521.945,654.831 519.391,651.577C518.297,650.183 496.367,646.603 484.429,643.793C412.455,626.852 405.214,630.753 408.982,625.824C411.154,622.982 412.034,624.722 475.572,636.114C510.192,642.322 523.288,647.275 519.208,642.771C517.203,640.557 413.649,622.838 412.891,621.355C411.088,617.829 415.159,620.193 466.502,629.484C501.517,635.82 522.736,642.216 519.173,637.845C518.2,636.652 467.414,627.543 409.441,615.909C357.956,605.577 353.25,607.265 355.884,603.749C357.581,601.483 358.323,602.111 396.503,609.484C450.154,619.846 516.379,635.285 517.659,633.622C519.948,630.646 515.892,631.861 460.429,619.858C439.026,615.227 357.73,599.356 357.683,599.314C352.306,594.435 361.401,597.824 447.408,612.964C514.306,624.74 521.091,627.846 517.245,623.704C516.686,623.101 466.666,612.807 380.559,599.121C356.877,595.357 355.155,594.978 356.353,593.388C357.792,591.476 387.627,601.192 408.511,599.76C409.379,599.7 517.29,621.754 518.427,620.438C520.491,618.05 516.916,618.751 450.521,605.395C416.108,598.472 415.789,599.074 414.247,597.315C414.961,597.017 414.886,596.733 417.595,595.916C417.772,595.863 417.704,595.886 518.513,614.132C520.312,614.457 521.536,612.281 519.603,611.352C518.513,610.828 469.933,600.012 465.609,599.049C444.123,593.702 427.986,590.519 427.706,590.3C427.056,589.792 426.3,588.711 434.579,582.61C435.783,581.723 435.946,582.409 468.538,588.275C514.453,596.538 524.445,598.758 522.499,595.501C521.755,594.257 469.072,586.083 439.604,580.223C437.048,579.715 439.482,576.612 440.717,575.83C443.242,574.231 514.121,590.139 520.498,590.479C521.64,590.54 523.48,588.411 519.463,587.741C515.686,587.111 511.151,586.354 472.531,578.35C471.503,578.137 471.495,578.302 459.621,576.005C445.319,573.238 441.949,573.162 444.584,570.591C446.435,568.785 518.39,583.938 521.35,583.078C526.993,581.439 516.926,579.845 516.459,579.771C511.098,578.922 477.482,573.597 449.641,568.02C446.27,567.345 446.768,565.634 449.495,563.49C517.76,574.444 518.09,575.191 519.18,574.137C521.916,571.491 508.193,570.352 506.574,570.082C481.434,565.879 455.379,561.725 450.924,561.014C449.857,560.296 449.923,560.375 449.857,560.296C447.836,557.885 447.383,558.527 425.401,553.981C400.243,548.778 381.624,545.346 381.011,544.873C375.375,540.531 391.835,544.395 414.581,549.105C422.803,550.807 513.466,569.579 517.662,568.863C517.827,568.835 520.593,566.881 515.423,565.949C455.217,555.104 455.364,554.761 395.469,542.647C384.386,540.405 376.49,539.815 379.47,537.461C380.188,536.895 420.555,544.985 435.54,547.249C517.429,559.619 523.114,564.036 520.345,559.6C518.598,556.801 383.273,537.192 381.651,534.421C379.367,530.519 387.952,533.301 403.445,535.858C473.479,547.417 519.838,556.869 520.346,556.355C522.444,554.233 513.289,552.941 512.444,552.78C468.993,544.482 468.995,544.941 425.418,536.952C384.316,529.416 382.778,530.542 382.413,527.509C382.007,524.131 388.67,526.366 399.56,528.071C516.486,546.386 528.796,554.17 521.31,547.742C521.203,547.65 473.68,538.157 469.537,537.33C396.165,522.673 374.681,524.288 381.622,519.662C382.836,518.853 434.941,528.317 439.563,529.156C470.177,534.717 519.942,544.929 521.193,544.061C524.932,541.47 519.114,541.975 433.472,525.625C385.293,516.427 380.71,518.103 381.511,515.502C382.049,513.758 518.082,538.507 520.534,536.551C522.883,534.678 515.05,533.491 514.513,533.409C391.919,514.834 392.23,513.281 381.48,512.592C378.675,512.413 379.288,510.668 380.569,509.59C382.606,507.876 436.829,518.494 472.507,523.441C506.805,528.197 524.678,533.109 520.406,528.605C519.111,527.24 384.677,508 382.702,506.34C379.138,503.345 385.199,504.656 385.449,504.71C418.471,511.852 430.441,510.965 438.51,511.265C444.138,511.474 444.891,513.013 468.494,516.55C521.879,524.549 524.06,526.37 523.88,523.417C523.763,521.522 467.075,514.39 448.426,510.61C445.373,509.991 448.67,507.678 452.505,508.415C472.611,512.278 523.357,519.073 523.382,519.064C527.352,517.653 520.8,516.568 520.496,516.518C458.206,506.205 451.393,507.747 455.822,504.916C458.668,503.097 458.98,504.578 497.588,511.122C522.726,515.383 523.475,514.727 525.138,513.271Z" style="fill:white;"/>
            </g>
            <g transform="matrix(1.15625,0,0,1.15625,0,0)">
                <path d="M436.082,135.524C436.087,134.324 435.852,133.124 436.114,127.473C437.148,105.112 453.141,83.277 470.71,74.951C523.902,49.744 570.328,100.953 559.147,146.411C542.371,214.611 442.045,209.799 436.082,135.524Z" style="fill:white;"/>
            </g>
            <g transform="matrix(1.15625,0,0,1.15625,0,0)">
                <path d="M533.814,360.887C534.016,362.273 533.914,363.202 536.508,362.553C542.519,361.049 542.418,361.082 548.562,359.823C596.736,349.951 596.937,346.192 600.361,348.691C605.518,352.454 598.692,351.529 581.5,355.501C547.146,363.439 530.048,366.154 533.067,368.831C534.145,369.787 562.592,361.857 586.415,357.121C600.825,354.256 605.419,352.091 608.363,355.588C608.635,355.912 608.812,356.643 603.592,357.865C536.024,373.67 529.194,372.369 533.611,375.352C534.654,376.057 593.255,363.075 600.459,361.333C606.767,359.807 611.528,356.882 618.061,360.903C618.542,361.2 618.302,361.941 611.516,363.565C587.977,369.2 533.032,380.479 532.679,380.748C526.338,385.565 548.746,379.78 561.598,376.921C566.547,375.82 623.016,363.259 623.495,363.297C645.185,365.008 645.195,361.239 646.887,362.046C653.354,365.135 618.949,366.538 567.404,378.061C529.591,386.515 526.31,386.136 528.422,388.579C529.615,389.959 576.98,376.92 604.502,373.525C615.828,372.127 646.304,365.228 647.937,367.074C651.43,371.024 640.534,371.432 626.485,374.428C555.73,389.514 527.728,391.541 526.221,394.403C524.7,397.29 535.643,394.43 536.434,394.224C540.832,392.594 540.824,392.705 545.472,392.125C577.67,388.111 623.282,377.373 644.5,373.501C647.545,372.945 646.525,377.133 646.363,377.412C645.442,378.997 605.889,384.086 579.624,389.997C529.876,401.191 527.68,400.371 528.653,402.417C529.269,403.712 529.788,403.824 546.44,400.149C554.316,398.41 643.303,378.767 645.525,381.482C648.134,384.669 643.974,383.673 613.415,390.184C530.647,407.817 530.613,407.821 528.796,408.72C527.964,408.017 527.132,407.315 526.299,406.612C521.385,404.306 444.368,390.564 416.49,386.558C393.608,383.269 389.54,383.112 390.307,380.389C390.846,378.477 522.695,402.368 524.082,401.043C527.252,398.014 522.121,399.407 470.399,389.968C467.562,389.45 392.458,377.876 391.848,377.238C391.187,376.548 391.517,372.402 394.481,372.384C406.627,372.308 522.054,393.247 523.512,391.512C526.449,388.016 521.024,390.807 467.514,380.452C460.178,379.033 392.035,369.165 391.903,369.052C387.252,365.075 398.219,367.114 421.515,370.407C496.155,380.957 496.008,381.435 519.556,385.032C520.078,385.112 527.942,386.313 526.064,383.878C525.031,382.54 441.808,370.789 434.467,369.753C396.413,364.38 396.135,365.427 393.209,363.828C392.662,363.529 391.493,359.871 400.461,360.987C409.46,362.107 468.326,371.575 507.5,376.496C521.385,378.241 530.699,381.285 529.144,377.763C528.41,376.1 500.899,373.429 469.484,368.603C425.612,361.863 403.357,358.857 397.597,358.079C393.139,357.477 393.751,354.033 396.498,354.446C407.121,356.046 526.451,374.018 529.447,373.357C530.384,373.15 531.638,371.165 528.45,370.736C483.727,364.715 395.967,352.296 394.927,351.058C394.793,350.898 393.966,347.218 396.409,347.13C402.53,346.911 402.31,348.695 472.462,355.911C496.93,358.428 530.744,364.127 531.224,363.088C531.412,362.681 531.022,362.151 531.21,361.744C532.078,361.458 532.946,361.173 533.814,360.887Z" style="fill:white;"/>
            </g>
            <g transform="matrix(1.15625,0,0,1.15625,0,0)">
                <path d="M623.449,466.313C550.653,483.9 524.939,486.895 528.884,490.05C530.427,491.284 648.22,461.429 650.506,463.492C653.928,466.58 648.042,464.596 574.46,482.377C570.864,483.247 532.605,492.492 529.647,493.834C527.539,494.79 528.429,496.825 531.402,496.051C540.478,493.689 631.477,469.997 645.501,469.129C645.781,469.111 647.871,468.982 648.119,471.448C648.317,473.425 640.365,473.9 622.465,478.352C604.49,482.823 527.789,498.614 527.409,500.471C526.424,505.273 530.34,501.035 587.509,488.55C644.652,476.071 650.342,473.519 647.262,477.284C646.987,477.619 617.142,484.036 614.518,484.6C585.607,490.815 553.848,498.621 548.59,499.913C541.367,501.688 521.766,506.116 528.516,507.461C529.246,507.607 610.097,487.746 634.521,482.606C639.435,481.572 646.954,478.476 646.908,482.483C646.841,488.308 644.277,486.583 638.564,487.812C635.825,488.401 581.243,499.256 541.587,507.942C532.715,509.885 532.587,509.338 524.264,512.853C520.254,511.446 513.429,511.404 493.565,508.102C462.268,502.9 462.248,502.402 461.46,501.483C464.949,498.78 465.162,498.635 469.471,499.639C473.99,500.691 485.134,502.286 486.502,502.482C522.817,507.682 523.065,507.998 523.42,507.426C523.658,507.041 524.432,505.526 518.479,504.662C470.111,497.644 465.981,497.679 468.741,494.704C471.146,492.114 473.202,493.399 486.499,495.507C521.232,501.013 522.256,502.078 522.421,500.482C522.766,497.131 480.16,492.529 474.274,490.869C473.966,490.782 471.693,487.465 477.499,488.508C522.954,496.676 526.78,498.117 525.029,494.706C524.048,492.797 488.248,488.223 478.267,485.984C478.067,485.939 475.467,485.356 477.521,483.523C479.145,482.074 520.697,490.321 522.441,490.176C522.716,490.154 525.553,488.24 520.551,487.285C481.936,479.905 478.823,481.349 480.258,478.376C482.254,474.237 520.777,484.646 523.541,483.574C532.085,480.262 484.863,475.868 482.273,473.626C480.506,472.097 480.308,472.39 453.453,468.872C387.589,460.243 384.326,460.339 385.931,456.734C387.234,453.807 521.633,478.527 523.678,477.735C531.399,474.745 493.169,471.062 440.479,461.613C388.743,452.335 386.097,455.508 386.385,452.485C386.768,448.475 389.176,450.608 436.476,457.632C520.69,470.139 520.657,473.191 525.432,471.44C530.542,471.925 530.332,470.535 541.616,467.954C549.533,466.142 642.12,447.38 644.554,446.987C645.087,446.901 650.898,445.963 650.785,449.552C650.754,450.546 650.325,450.744 620.433,457.135C613.017,458.72 528.786,476.728 527.948,477.954C527.65,478.391 527.8,479.937 534.525,478.63C559.439,473.787 647.243,452.966 648.746,454.298C649.296,454.785 649.711,457.057 647.539,457.586C626.246,462.771 527.273,482.14 526.715,482.853C526.083,483.66 526.947,485.493 539.528,482.692C546.164,481.215 619.666,464.851 622.696,465.239C623.129,465.294 623.015,466.257 623.449,466.313Z" style="fill:white;"/>
            </g>
            <g transform="matrix(1.15625,0,0,1.15625,0,0)">
                <path d="M529.372,312.201C531.603,312.138 531.39,311.093 533.523,311.428C535.417,311.724 535.297,311.329 544.585,308.786C570.736,301.626 640.223,286.148 645.501,285.313C649.194,284.728 648.218,289.021 648.148,289.104C647.127,290.335 616.277,295.925 613.488,296.43C593.096,300.125 535.512,315.405 535.454,315.422C534.014,315.848 534.39,316.414 535.478,317.537C535.841,318.27 536.204,319.002 536.567,319.735C536.242,319.815 531.245,321.039 533.472,322.552C534.752,323.422 585.373,310.532 611.492,305.46C632.885,301.306 646.719,297.303 648.272,298.772C651.18,301.52 643.514,302.002 636.544,303.686C591.571,314.55 591.566,314.138 546.548,324.723C539.432,326.396 532.525,326.923 532.969,329.267C533.584,332.514 643.26,303.62 646.635,304.307C658.649,306.753 584.055,319.01 582.975,321.652C581.463,325.352 580.119,323.955 552.601,329.964C532.539,334.345 531.929,333.794 531.455,335.477C530.358,339.374 539.844,335.209 557.513,331.589C582.47,326.476 582.84,325.06 584.387,326.606C588.929,331.145 582.505,329.893 559.543,335.669C533.107,342.318 532.418,341.377 531.899,342.73C530.755,345.715 542.503,342.438 544.403,342.008C586.21,332.534 587.25,330.813 588.623,333.433C589.91,335.888 583.112,336.737 577.408,338.164C535.166,348.737 532.377,347.969 533.91,350.145C535.58,352.514 589.528,336.838 591.178,337.942C595.656,340.941 590.23,341.332 570.556,345.721C567.671,346.365 535.662,353.507 534.705,354.646C531.03,359.025 550.231,352.734 557.437,351.199C594.992,343.196 596.283,342.432 596.554,344.479C596.968,347.594 546.526,356.54 533.814,360.887C532.946,361.173 532.078,361.458 531.21,361.744C522.73,358.038 394.638,346.135 392.855,343.268C389.68,338.161 396.067,343.496 467.619,351.026C519.196,356.453 535.097,361.129 530.192,356.839C528.549,355.401 392.524,340.229 390.447,337.542C389.839,336.755 391.443,332.424 394.535,332.938C480.873,347.295 528.341,354.164 530.481,353.47C536.047,351.664 528.181,350.97 458.446,340.832C428.366,336.458 428.637,335.294 398.552,331.061C392.523,330.213 395.58,327.291 396.477,327.371C399.046,327.599 443.818,335.046 459.411,336.967C459.821,335.611 459.006,335.598 459.413,334.254C459.433,334.187 459.44,334.164 460.277,334.103C461.493,334.015 461.429,334.068 462.628,333.8C462.689,334.249 462.01,333.688 462.072,334.135C462.086,334.241 462.132,334.579 462.824,335.237C463.427,335.809 491.036,340.084 493.496,340.465C493.496,340.465 495.449,339.496 495.619,339.412C503.123,339.839 503.108,340.616 510.484,339.393C521.778,337.52 524.1,342.744 526.573,340.574C529.167,338.298 519.968,338.186 521.749,336.755C523.706,335.184 524.011,335.554 525.395,333.419C526.124,332.294 528.985,332.736 529.39,332.357C531.57,330.314 525.714,330.86 525.813,327.512C525.902,324.485 529.439,325.84 530.533,325.583C534.601,324.626 526.076,322.32 525.996,322.207C523.557,318.729 530.025,318.874 530.336,318.418C531.455,316.772 526.599,316.336 526.073,315.863C525.78,315.599 522.226,312.27 529.372,312.201Z" style="fill:white;"/>
            </g>
            <g transform="matrix(1.15625,0,0,1.15625,0,0)">
                <path d="M524.402,431.146C537.859,432.045 569.366,420.024 566.052,426.304C564.885,428.516 521.859,433.969 528.292,436.728C531.326,438.029 567.218,427.792 569.11,429.907C571.78,432.891 562.54,433.009 536.477,439.37C529.859,440.985 528.564,440.276 528.933,442.319C529.227,443.945 531.997,442.722 563.403,436.008C565.638,435.53 573.392,432.973 573.403,435.515C573.407,436.358 573.165,437.053 538.429,444.147C537.454,444.347 526.228,445.726 528.839,448.041C529.487,448.616 533.763,447.713 554.488,443.437C573.043,439.609 577.265,437.098 580.089,440.747C582.49,443.849 577.879,441.381 532.462,452.346C532.061,452.443 524.906,454.17 528.453,455.573C530.499,456.382 582.407,442.989 585.604,444.209C587.41,444.898 595.556,447.422 591.361,448.219C586.483,449.146 555.375,455.058 530.603,460.872C525.331,462.109 529.177,463.865 529.435,463.874C530.345,463.905 590.349,450.964 590.583,450.913C595.686,449.788 595.535,448.893 601.529,449.14C609.144,449.454 643.846,442.214 647.495,441.452C649.808,440.97 650.102,443.402 647.3,444.035C646.958,444.112 563.652,460.41 541.465,465.345C532.219,467.402 527.179,468.451 525.432,471.44C525.295,471.231 525.337,470.937 525.2,470.729C522.779,467.039 430.861,454.796 393.563,448.221C389.923,447.58 389.781,447.268 388.887,444.357C387.481,439.775 390.836,442.207 395.576,443.014C405.742,444.745 493.804,459.742 522.49,465.565C527.097,466.5 524.588,463.751 524.431,463.595C522.955,462.128 407.652,442 395.525,440.271C390.44,439.546 387.475,440.259 389.376,435.433C390.664,432.165 523.051,459.459 524.261,458.226C527.176,455.255 509.881,454.01 506.355,452.979C497.974,450.528 495.363,450.785 488.539,449.32C458.28,442.824 421.905,437.298 420.576,437.077C390.627,432.086 390.24,433.428 388.079,431.926C381.902,427.632 402.74,431.965 412.488,432.748C438.404,434.828 438.337,435.242 488.566,444.098C524.396,450.416 526.323,452.121 526.009,449.602C525.687,447.012 463.248,437.033 448.68,435.093C426.866,432.187 453.107,433.829 453.505,433.859C488.686,436.505 523.2,444.151 524.626,443.777C536.515,440.662 481.177,435.604 476.371,433.575C469.727,430.771 489.402,433.005 490.528,433.133C511.672,435.534 511.542,436.116 521.501,437.306C523.494,437.544 524.057,435.036 520.502,434.487C488.98,429.619 477.272,429.762 473.493,429.809C469.048,429.863 465.455,423.143 465.514,422.501C465.754,419.853 519.716,431.036 524.402,431.146Z" style="fill:white;"/>
            </g>
            <g transform="matrix(1.15625,0,0,1.15625,0,0)">
                <path d="M686.247,626.82C705.267,641.703 708.971,636.719 709.685,639.43C710.987,644.374 652.936,659.973 653.563,653.501C654.262,646.283 650.435,652.123 650.282,652.355C645.681,659.376 622.588,644.71 608.978,626.127C601.011,615.249 602.578,614.013 603.623,613.742C605.87,613.16 663.426,601.303 664.468,601.566C666.535,602.088 667.679,613.8 686.247,626.82Z" style="fill:white;"/>
            </g>
            <g transform="matrix(1.15625,0,0,1.15625,0,0)">
                <path d="M526.299,406.612C527.132,407.315 527.964,408.017 528.796,408.72C528.961,412.035 531.175,409.871 600.475,395.393C612.246,392.934 643.584,386.675 645.481,386.577C647.279,386.485 647.089,389.329 645.574,389.628C617.644,395.128 617.529,394.141 589.591,399.916C584.79,400.908 530.337,412.164 529.648,412.664C519.673,419.895 569.018,404.802 632.473,394.33C643.173,392.565 646.024,391.329 646.086,393.528C646.182,396.915 632.503,395.312 563.496,410.486C562.292,410.751 536.026,416.465 533.637,416.985C533.353,417.047 516.876,421.085 531.464,419.896C540.574,419.154 540.072,416.405 643.544,397.763C643.868,397.704 650.242,396.556 647.352,399.329C646.701,399.953 528.802,420.019 528.379,424.483C528.008,428.397 530.786,423.842 577.42,415.023C645.557,402.137 645.69,402.193 646.322,402.725C647.271,403.522 647.476,405.516 645.582,405.859C633.101,408.12 532.217,427.464 528.243,429.14C527.95,429.264 527.532,429.44 524.263,428.967C506.274,424.588 465.871,419.187 464.678,418.284C459.558,414.407 456.676,417.618 451.476,416.643C395.301,406.106 386.813,406.262 392.867,403.954C393.978,403.53 497.84,419.192 519.474,423.612C519.806,423.68 540.562,426.667 523.342,421.904C510.74,418.418 419.292,405.233 402.471,402.625C391.539,400.93 388.876,401.649 390.616,399.608C392.111,397.856 413.663,402.588 439.477,405.734C453.618,407.457 496.537,413.813 501.494,414.547C518.55,417.073 526.681,420.57 526.044,417.671C525.218,413.916 395.327,398.051 393.57,396.438C388.7,391.968 404.016,395.097 434.574,400.057C441.615,401.2 520.571,414.016 522.675,413.785C531.123,412.856 517.924,410.923 517.45,410.853C516.461,410.709 393.031,391.106 392.529,390.476C392.328,390.223 391.296,385.766 395.506,386.099C399.421,386.408 454.51,394.528 497.56,403.22C499.778,403.668 524.707,408.701 525.416,408.105C525.859,407.734 525.856,406.984 526.299,406.612Z" style="fill:white;"/>
            </g>
            <g transform="matrix(1.15625,0,0,1.15625,0,0)">
                <path d="M648.576,358.774C644.541,359.519 636.552,362.063 637.31,358.474C639.129,349.855 633.957,359.39 629.481,360.441C613.398,364.218 580.944,324.235 588.445,322.359C595.044,320.71 608.282,318.694 648.411,309.042C654.467,307.585 651.26,316.053 665.639,329.346C681.658,344.155 697.199,342.616 691.273,345.142C676.567,351.412 652.044,357.862 648.576,358.774Z" style="fill:white;"/>
            </g>
            <g transform="matrix(1.15625,0,0,1.15625,0,0)">
                <path d="M435.26,577.265C433.213,579.315 408.438,604.134 402.796,593.326C397.518,583.216 400.521,596.199 399.791,596.794C398.87,597.545 375.046,595.124 352.556,588.318C346.976,586.63 335.761,584.097 338.582,582.587C339.337,582.183 339.576,582.864 348.36,578.24C366.433,568.726 376.213,552.557 377.913,549.747C380.448,545.555 381.966,548.287 433.499,558.507C438.557,559.51 447.236,559.63 445.26,563.38C442.083,569.411 435.552,576.902 435.26,577.265Z" style="fill:white;"/>
            </g>
            <g transform="matrix(1.15625,0,0,1.15625,0,0)">
                <path d="M549.621,221.495C549.489,230.527 550.059,243.139 545.367,245.215C538.518,248.244 520.511,254.609 519.733,254.999C516.055,256.842 513.356,259.53 514.196,255.487C522.736,214.365 510.8,197.921 516.589,195.72C533.447,189.312 533.429,189.06 546.799,176.888C550.909,173.147 564.876,201.344 564.403,202.494C563.683,204.245 561.508,203.336 561.972,207.443C566.278,245.549 563.342,253.44 544.309,261.081C538.338,263.478 536.016,258.447 520.523,260.247C501.915,262.409 548.599,251.197 550.876,244.644C553.344,237.54 554.359,201.716 549.457,206.454C548.526,207.353 549.223,207.595 549.621,221.495Z" style="fill:white;"/>
            </g>
            <g transform="matrix(1.15625,0,0,1.15625,0,0)">
                <path d="M524.745,669.227C528.199,669.723 528.187,669.066 567.409,660.128C572.049,659.07 624.359,647.149 625.526,647.428C627.782,647.967 627.551,649.467 625.349,650.03C597.591,657.131 523.811,673.449 523.56,675.51C523.166,678.746 525.661,676.946 563.54,667.672C568.895,666.361 630.098,651.378 630.502,651.371C632.665,651.334 635.673,653.24 632.34,654.097C581.503,667.163 581.19,665.599 530.386,679.039C529.776,679.2 519.4,681.945 523.651,683.135C524.899,683.485 636.791,654.573 639.547,655.362C645.689,657.122 637.945,657.899 611.398,665.132C605.972,666.61 525.092,686.549 520.5,686.499C516.757,686.458 486.069,679.471 374.566,659.141C361.107,656.687 351.478,655.47 355.42,653.421C358.584,651.776 437.347,668.052 480.561,675.114C515.862,680.883 521.901,683.614 518.28,679.703C516.878,678.188 439.467,665.769 402.558,658.246C357.822,649.129 353.515,650.805 355.951,647.862C357.541,645.941 386.589,652.652 493.573,672.042C509.387,674.908 520.692,678.482 518.186,674.744C517.177,673.238 420.697,656.119 384.562,649.173C358.659,644.194 355.195,644.929 357.437,642.439C358.943,640.765 359.317,645.098 385.497,644.642C388.538,644.589 448.233,655.548 506.525,668.359C518.622,671.017 518.673,671.297 521.349,670.38C521.732,670.351 521.61,670.123 522.026,670.092C523.486,669.981 523.343,669.672 524.745,669.227Z" style="fill:white;"/>
            </g>
            <g transform="matrix(1.15625,0,0,1.15625,0,0)">
                <path d="M450.588,504.691C443.881,507.337 442.679,508.624 439.19,503.739C436.452,499.908 436.676,506.211 436.687,506.51C436.745,508.139 432.816,509.31 411.478,506.673C401.133,505.394 394.743,503.839 378.586,500.266C370.795,498.542 388.65,498.751 406.417,477.435C411.865,470.9 412.582,466.828 415.496,467.037C415.56,467.042 477.219,473.705 477.661,475.43C478.371,478.198 468.397,491.315 464.133,495.11C457.131,501.345 452.816,503.392 450.588,504.691Z" style="fill:white;"/>
            </g>
            <g transform="matrix(1.15625,0,0,1.15625,0,0)">
                <path d="M561.49,286.298C544.438,286.587 544.532,285.417 527.492,284.729C522.122,284.511 521.541,295.941 521.93,318.486C522.089,327.682 523.87,333.403 517.506,334.532C505.681,336.629 493.357,339.044 499.66,331.632C504.824,325.558 498.549,323.19 499.731,291.502C500.836,261.899 514.068,258.216 555.509,268.46C573.803,272.982 572.817,275.993 572.342,277.444C569.455,286.259 562.752,286.073 561.49,286.298Z" style="fill:white;"/>
            </g>
            <g transform="matrix(1.15625,0,0,1.15625,0,0)">
                <path d="M570.432,426.539C568.45,421.923 571.662,422.964 576.597,421.98C581.783,420.946 632.309,410.87 641.46,409.246C645.064,408.607 645.98,414.864 652.537,420.456C663.767,430.032 676.965,429.711 671.587,431.617C650.641,439.039 626.41,443.328 622.414,444.035C611.236,446.013 610.276,445.558 609.507,442.497C608.292,437.658 606.84,446.247 601.478,445.915C583.632,444.808 572.147,428.912 570.432,426.539Z" style="fill:white;"/>
            </g>
            <g transform="matrix(1.15625,0,0,1.15625,0,0)">
                <path d="M395.546,616.209C396.695,616.422 408.929,618.151 409.288,619.516C409.393,619.916 402.43,632.632 389.347,639.174C376.018,645.84 377.414,635.452 374.535,635.695C373.214,635.807 373.77,636.433 373.542,640.508C373.471,641.778 372.667,641.928 347.546,637.234C316.456,631.424 313.486,631.03 315.721,629.67C323.686,624.823 328.536,626.513 342.962,607.877C344.833,605.459 367.994,611.587 395.546,616.209Z" style="fill:white;"/>
            </g>
            <g transform="matrix(1.15625,0,0,1.15625,0,0)">
                <path d="M498.663,275.558C497.699,279.065 497.744,281.43 494.561,281.003C486.694,279.95 483.244,276.63 482.337,284.483C478.868,314.534 487.041,323.499 478.61,326.768C474.709,328.28 460.711,331.22 459.561,330.38C455.832,327.658 464.196,326.128 463.025,318.579C462.301,313.912 455.274,268.598 469.77,259.924C472.42,258.339 477.589,255.246 508.365,260.848C510.224,261.187 509.882,262.207 508.272,263.179C501.755,267.113 500.913,270.677 498.663,275.558Z" style="fill:white;"/>
            </g>
            <g transform="matrix(1.15625,0,0,1.15625,0,0)">
                <path d="M432.494,430.874C426.454,430.682 409.396,430.7 388.471,426.642C374.181,423.871 366.766,413.567 372.516,415.418C403.563,425.417 451.648,420.15 458.493,419.4C462.657,418.944 461.218,424.752 466.525,429.479C471.892,434.259 463.64,430.855 432.494,430.874Z" style="fill:white;"/>
            </g>
            <g transform="matrix(1.15625,0,0,1.15625,0,0)">
                <path d="M571.761,286.447C581.391,269.787 574.932,264.282 580.498,264.608C596.384,265.539 620.936,267.638 624.45,267.939C631.061,268.504 648.224,268.721 639.489,270.48C627.498,272.896 576.418,287.049 571.761,286.447Z" style="fill:white;"/>
            </g>
            <g transform="matrix(1.15625,0,0,1.15625,0,0)">
                <path d="M564.476,205.512C565.663,204.923 565.675,203.387 566.28,204.617C566.368,204.796 566.125,204.832 566.808,207.048C570.603,219.351 577.643,235.57 574.251,268.449C574.226,268.698 573.976,271.119 571.61,270.125C551.06,261.497 549.288,264.503 548.875,262.633C548.137,259.289 575.4,265.569 564.476,205.512Z" style="fill:white;"/>
            </g>
            <g transform="matrix(1.15625,0,0,1.15625,0,0)">
                <path d="M529.412,302.635C529.849,302.643 529.709,302.93 530.182,302.939C531.695,302.969 531.554,303.321 532.955,303.711C533.211,303.929 533.117,304.411 533.373,304.63C534.527,305.616 547.017,301.431 555.488,299.446C578.321,294.094 636.155,279.029 645.519,276.926C648.667,276.219 651.115,281.928 648.444,282.37C644.749,282.982 636.23,284.392 602.605,291.909C534.838,307.058 535.441,309.147 529.554,310.448C528.638,309.979 524.269,309.313 525.464,305.487C526.06,303.578 532.329,306.388 529.412,302.635Z" style="fill:white;"/>
            </g>
            <g transform="matrix(1.15625,0,0,1.15625,0,0)">
                <path d="M403.298,275.39C407.189,273.823 407.469,275.713 455.46,270.107C461.156,269.441 458.125,272.865 457.67,278.512C457.296,283.167 458.123,285.389 453.478,284.642C428.985,280.704 429.127,280.368 404.675,276.358L403.298,275.39Z" style="fill:white;"/>
            </g>
            <g transform="matrix(1.15625,0,0,1.15625,0,0)">
                <path d="M510.642,246.582C509.217,248.621 504.817,257.218 500.498,256.517C492.783,255.265 488.227,255.367 492.112,252.085C514.389,233.262 513.211,180.022 513.504,214.5C513.682,235.401 513.837,240.553 510.642,246.582Z" style="fill:white;"/>
            </g>
            <g transform="matrix(1.15625,0,0,1.15625,0,0)">
                <path d="M557.59,292.873C589.508,284.928 589.558,285.387 621.529,277.617C640.926,272.903 653.464,268.333 649.097,273.1C648.087,274.202 584.089,289.774 578.418,291.153C533.584,302.061 533.633,302.735 532.955,303.711C531.554,303.321 531.695,302.969 530.182,302.939C529.709,302.93 529.849,302.643 529.412,302.635C526.549,301.942 525.604,301.643 525.532,300.499C525.322,297.183 527.192,299.021 530.506,299.209C535.738,299.505 555.461,293.519 557.59,292.873Z" style="fill:white;"/>
            </g>
            <g transform="matrix(1.15625,0,0,1.15625,0,0)">
                <path d="M457.705,303.479C457.687,303.769 458.883,307.105 455.491,306.67C450.912,306.083 451.083,305.554 398.571,297.173C396.421,296.83 390.322,297.743 394.879,291.744C395.666,290.708 402.735,292.21 453.461,300.704C456.295,301.178 456.928,300.721 457.705,303.479Z" style="fill:white;"/>
            </g>
            <g transform="matrix(1.15625,0,0,1.15625,0,0)">
                <path d="M535.478,317.537C537.242,317.319 645.069,290.411 646.546,293.469C648.555,297.631 643.995,295.042 590.437,307.258C580.946,309.423 565.374,313.263 536.567,319.735C536.204,319.002 535.841,318.27 535.478,317.537Z" style="fill:white;"/>
            </g>
            <g transform="matrix(1.15625,0,0,1.15625,0,0)">
                <path d="M459.502,318.5C459.143,322.595 456.864,320.553 426.516,316.404C397.803,312.479 396.146,312.06 393.561,311.406C391.06,310.773 392.696,306.265 396.517,306.891C401.298,307.674 437.087,313.538 456.39,315.991C459.704,316.412 459.113,317.712 459.502,318.5Z" style="fill:white;"/>
            </g>
            <g transform="matrix(1.15625,0,0,1.15625,0,0)">
                <path d="M457.262,296.495C456.602,299.738 453.343,297.824 436.532,295.261C415.403,292.04 415.571,291.404 394.391,288.73C391.92,288.418 393.8,283.646 397.514,284.18C402.038,284.831 455.284,293.668 456.686,294.347C457.292,294.641 457.015,294.762 457.262,296.495Z" style="fill:white;"/>
            </g>
            <g transform="matrix(1.15625,0,0,1.15625,0,0)">
                <path d="M395.851,302.451C395.861,302.237 395.977,299.778 395.977,299.778C397.776,298.855 425.006,303.982 427.512,304.454C456.328,309.88 459.314,308.05 458.715,312.54C458.444,314.571 448.047,312.28 435.52,310.37C403.689,305.516 396.779,305.28 395.851,302.451Z" style="fill:white;"/>
            </g>
            <g transform="matrix(1.15625,0,0,1.15625,0,0)">
                <path d="M394.608,324.25C392.801,322.578 391.172,322.607 392.831,320.736C393.636,319.829 448.437,328.218 452.665,329.206C455.338,329.83 455.403,333.161 455.219,333.416C454.618,334.247 399.445,325.055 394.608,324.25Z" style="fill:white;"/>
            </g>
            <g transform="matrix(1.15625,0,0,1.15625,0,0)">
                <path d="M443.147,417.593C442.362,418.717 442.248,418.638 440.547,418.677C426.189,419.004 391.994,418.228 390.737,415.37C390.712,415.313 390.109,408.309 396.512,409.418C439.543,416.868 439.445,416.79 443.147,417.593Z" style="fill:white;"/>
            </g>
            <g transform="matrix(1.15625,0,0,1.15625,0,0)">
                <path d="M398.497,277.516C454.295,289.11 459.068,286.021 457.076,290.386C456.014,292.715 435.503,287.254 401.53,282.278C400.913,282.187 391.7,280.838 395.447,277.406C395.447,277.406 398.253,277.507 398.497,277.516Z" style="fill:white;"/>
            </g>
            <g transform="matrix(1.15625,0,0,1.15625,0,0)">
                <path d="M392.792,317.217C392.142,315.286 391.359,314.461 393.384,314.21C394.554,314.065 426.639,318.895 429.526,319.33C456.066,323.326 457.808,322.246 457.385,324.472C456.776,327.678 453.83,326.755 453.489,326.648C449.874,325.514 397.174,318.694 392.792,317.217Z" style="fill:white;"/>
            </g>
            <g transform="matrix(1.15625,0,0,1.15625,0,0)">
                <path d="M450.924,561.014C455.379,561.725 481.434,565.879 506.574,570.082C508.193,570.352 521.916,571.491 519.18,574.137C518.09,575.191 517.76,574.444 449.495,563.49C449.971,562.665 450.448,561.84 450.924,561.014Z" style="fill:rgb(65,62,58);"/>
            </g>
            <g transform="matrix(1.15625,0,0,1.15625,0,0)">
                <path d="M554.85,290.067C552.781,292.589 552.21,291.685 540.474,294.4C530.871,296.622 525.242,300.341 526.412,290.489C526.886,286.5 531.22,289.187 554.85,290.067Z" style="fill:white;"/>
            </g>
            <g transform="matrix(1.15625,0,0,1.15625,0,0)">
                <path d="M462.628,333.8C472.823,332.284 472.67,332.059 473.546,331.931C474.924,331.731 492.915,335.329 493.334,335.522C493.643,337.858 493.876,337.734 495.619,339.412C495.449,339.496 493.496,340.465 493.496,340.465C491.036,340.084 463.427,335.809 462.824,335.237C462.132,334.579 462.086,334.241 462.072,334.135C462.01,333.688 462.689,334.249 462.628,333.8Z" style="fill:white;"/>
            </g>
            <g transform="matrix(1.15625,0,0,1.15625,0,0)">
                <path d="M385.503,462.507C389.194,462.398 389.107,462.82 397.558,464.024C400.709,464.473 410.938,465.106 409.782,467.623C408.486,470.444 407.409,468.662 383.747,466.086C380.622,465.746 385.237,462.683 385.503,462.507Z" style="fill:white;"/>
            </g>
            <g transform="matrix(1.15625,0,0,1.15625,0,0)">
                <path d="M384.007,471.989C383.361,470.687 382.93,470.825 383.299,469.418C383.733,467.766 384.572,468.271 404.556,471.323C406.735,471.656 406.787,472.628 405.207,474.225C402.883,476.575 384.935,472.385 384.007,471.989Z" style="fill:white;"/>
            </g>
            <g transform="matrix(1.15625,0,0,1.15625,0,0)">
                <path d="M615.6,536.74C648.074,529.546 651.571,527.706 650.287,531.423C649.616,533.366 615.579,538.344 615.258,537.909C615.016,537.583 615.841,537.067 615.6,536.74Z" style="fill:rgb(203,203,196);"/>
            </g>
            <g transform="matrix(1.15625,0,0,1.15625,0,0)">
                <path d="M464.391,600.892C464.934,601.175 464.92,600.532 465.5,600.835C465.686,600.932 466.938,601.585 467.513,602.522C467.874,603.11 432.531,596.115 429.497,595.515C428.948,595.406 417.75,593.19 423.378,592.117C425.7,591.673 461.127,600.114 464.391,600.892Z" style="fill:white;"/>
            </g>
            <g transform="matrix(1.15625,0,0,1.15625,0,0)">
                <path d="M499.662,163.519C502.224,156.349 507.635,161.225 508.675,166.474C510.07,173.52 499.845,175.162 499.662,163.519Z"/>
            </g>
            <g transform="matrix(1.15625,0,0,1.15625,0,0)">
                <path d="M467.675,166.251C475.18,173.547 467.507,180.668 463.95,175.163C461.535,171.425 461.684,163.303 467.675,166.251Z"/>
            </g>
            <g transform="matrix(1.15625,0,0,1.15625,0,0)">
                <path d="M485.245,287.512C485.916,281.341 488.445,283.117 494.548,284.327C497.335,284.88 497.483,291.155 493.488,290.746C488.364,290.221 486.255,292.624 485.245,287.512Z" style="fill:white;"/>
            </g>
            <g transform="matrix(1.15625,0,0,1.15625,0,0)">
                <path d="M495.39,186.152C481.066,189.654 479.884,184.668 481.724,183.961C484.347,182.952 487.775,186.387 498.468,181.43C501.625,179.967 502.929,182.67 500.287,184.08C499.912,184.28 499.924,184.233 495.39,186.152Z"/>
            </g>
            <g transform="matrix(1.15625,0,0,1.15625,0,0)">
                <path d="M401.028,477.683C401.064,482.134 396.502,480.734 387.581,479.122C387.101,479.035 382.013,478.115 381.745,477.363C380.36,473.481 393.017,476.451 401.028,477.683Z" style="fill:white;"/>
            </g>
            <g transform="matrix(1.15625,0,0,1.15625,0,0)">
                <path d="M485.576,305.568C486.213,305.591 486.849,305.615 487.486,305.638C488.182,305.736 495.678,306.791 496.013,307.72C498.431,314.412 493.646,312.445 486.648,311.237C483.958,310.773 485.439,306.009 485.576,305.568Z" style="fill:white;"/>
            </g>
            <g transform="matrix(1.15625,0,0,1.15625,0,0)">
                <path d="M479.915,329.816C487.251,326.454 487.527,326.909 495.298,328.845C497.951,329.506 496.394,330.598 494.48,332.475C484.11,331.823 480.983,330.327 479.915,329.816Z" style="fill:white;"/>
            </g>
            <g transform="matrix(1.15625,0,0,1.15625,0,0)">
                <path d="M486.88,320.822C491.717,321.281 491.621,321.184 496.324,321.9C498.404,322.216 498.848,326.571 496.48,326.4C487.139,325.728 485.146,324.902 486.88,320.822Z" style="fill:white;"/>
            </g>
            <g transform="matrix(1.15625,0,0,1.15625,0,0)">
                <path d="M485.706,316.471C485.748,314.92 485.306,314.716 486.187,314.185C486.813,313.807 486.882,313.856 495.294,314.962C495.549,314.996 497.173,315.21 497.257,317.511C497.348,319.976 486.982,319.506 485.706,316.471Z" style="fill:white;"/>
            </g>
            <g transform="matrix(1.15625,0,0,1.15625,0,0)">
                <path d="M484.781,300.516C485.23,298.707 485.84,298.649 494.255,299.944C495.882,300.195 497.522,304.195 493.523,303.844C485.945,303.18 485.55,302.91 484.781,300.516Z" style="fill:white;"/>
            </g>
            <g transform="matrix(1.15625,0,0,1.15625,0,0)">
                <path d="M384.509,481.366C386.398,481.665 396.633,482.622 395.454,484.476C393.052,488.254 373.487,481.831 384.509,481.366Z" style="fill:rgb(215,217,209);"/>
            </g>
            <g transform="matrix(1.15625,0,0,1.15625,0,0)">
                <path d="M484.808,294.487C484.819,294.457 484.598,292.359 486.503,292.518C496.323,293.335 496.352,295.13 495.686,296.601C495.375,297.286 486.086,297.854 484.808,294.487Z" style="fill:white;"/>
            </g>
            <g transform="matrix(1.15625,0,0,1.15625,0,0)">
                <path d="M385.581,490.873C377.915,490.93 380.918,487.239 381.356,487.134C382.612,486.833 395.358,487.042 385.581,490.873Z" style="fill:white;"/>
            </g>
            <g transform="matrix(1.15625,0,0,1.15625,0,0)">
                <path d="M630.234,464.991C630.63,464.739 630.261,463.899 630.657,463.647C631.169,463.321 647.468,459.854 647.786,460.033C649.848,461.194 645.537,462.043 645.283,462.093C638.136,463.5 638.12,463.364 637.5,463.489C636.918,463.606 636.962,463.6 630.234,464.991Z" style="fill:white;"/>
            </g>
            <g transform="matrix(1.15625,0,0,1.15625,0,0)">
                <path d="M511.083,254.564C509.614,259.703 507.89,257.733 507.763,257.407C507.601,256.99 508.239,253.154 511.083,254.564Z" style="fill:white;"/>
            </g>
            <g transform="matrix(1.15625,0,0,1.15625,0,0)">
                <path d="M330.5,614.251C330.285,614.436 326.092,618.065 326.995,613.69C327.505,611.216 328.482,612.835 330.5,614.251Z" style="fill:rgb(233,232,229);"/>
            </g>
            <g transform="matrix(1.15625,0,0,1.15625,0,0)">
                <path d="M647.48,407.884C647.562,407.932 648.51,408.491 648.51,408.491C648.736,412.937 646.664,408.665 646.597,408.527L647.48,407.884Z" style="fill:rgb(159,158,159);"/>
            </g>
            <g transform="matrix(1.15625,0,0,1.15625,0,0)">
                <path d="M548.244,394.343C548.564,394.228 548.499,393.615 548.819,393.5C548.943,393.455 550.003,394.337 550.003,394.5C550.003,395.744 549.431,394.449 548.244,394.343Z" style="fill:rgb(190,190,182);"/>
            </g>
            <g transform="matrix(1.15625,0,0,1.15625,0,0)">
                <path d="M485.576,305.568C485.831,305.408 485.611,304.871 485.867,304.711C485.994,304.632 485.983,304.777 487.486,305.638C486.849,305.615 486.213,305.591 485.576,305.568Z" style="fill:rgb(148,147,142);"/>
            </g>
            <g transform="matrix(1.15625,0,0,1.15625,0,0)">
                <path d="M403.298,275.39L404.675,276.358C404.528,276.303 402.838,275.674 402.838,275.674C402.802,275.498 403.334,275.566 403.298,275.39Z" style="fill:rgb(90,89,83);"/>
            </g>
            <g transform="matrix(1.15625,0,0,1.15625,0,0)">
                <path d="M378.435,617.572C377.979,616.523 377.932,616.602 377.979,616.523C378.434,615.759 378.089,616.775 378.435,617.572Z" style="fill:rgb(214,212,207);"/>
            </g>
        </g>
    </g>
</svg>
